<svg width="50" height="36" viewBox="0 0 50 36" fill="none" xmlns="http://www.w3.org/2000/svg">
<path d="M25 30.7747C30.908 30.7747 35.7143 25.9682 35.7143 20.0602C35.7143 14.1524 30.908 9.34612 25 9.34612C19.092 9.34612 14.2857 14.1522 14.2857 20.0602C14.2857 25.9682 19.092 30.7747 25 30.7747ZM25 12.4073C29.22 12.4073 32.6531 15.8404 32.6531 20.0602C32.6531 24.2802 29.22 27.7135 25 27.7135C20.78 27.7135 17.3469 24.28 17.3469 20.0602C17.3469 15.8404 20.78 12.4073 25 12.4073ZM15.1673 0H3.58592V4.12143H0V35.9996H50V4.12143H15.1673V0ZM6.64714 3.06122H12.1061V3.89918H6.64714V3.06122ZM46.9388 7.18265V32.9384H3.06122V7.18265H46.9388ZM29.8298 15.2308H20.17V24.8904H29.8298V15.2308ZM26.7686 21.8292H23.2312V18.292H26.7686V21.8292ZM43.9029 12.3808H36.9047V9.31959H43.9029V12.3808Z" fill="black"/>
</svg>
