<?xml version="1.0" standalone="no"?>
<!DOCTYPE svg PUBLIC "-//W3C//DTD SVG 20010904//EN"
 "http://www.w3.org/TR/2001/REC-SVG-20010904/DTD/svg10.dtd">
<svg version="1.0" xmlns="http://www.w3.org/2000/svg"
 width="864.000000pt" height="864.000000pt" viewBox="0 0 864.000000 864.000000"
 preserveAspectRatio="xMidYMid meet">
<metadata>
Created by potrace 1.14, written by Peter Selinger 2001-2017
</metadata>
<g transform="translate(0.000000,864.000000) scale(0.100000,-0.100000)"
fill="#000000" stroke="none">
<path d="M6750 8612 c-111 -35 -417 -131 -435 -136 -5 -2 -17 -6 -25 -9 -8 -3
-76 -24 -150 -47 -74 -23 -146 -45 -160 -51 -14 -5 -34 -11 -45 -13 -11 -3
-51 -16 -90 -29 -38 -13 -74 -25 -80 -26 -9 -1 -248 -76 -335 -104 -19 -6 -37
-12 -40 -12 -3 0 -30 -9 -60 -20 -30 -10 -61 -20 -68 -21 -7 -1 -36 -10 -65
-19 l-52 -16 -100 -202 c-55 -111 -106 -210 -114 -219 -8 -10 -12 -18 -8 -18
3 0 -104 -219 -238 -487 -386 -775 -699 -1408 -700 -1413 -1 -3 -12 -25 -24
-50 -13 -25 -88 -173 -166 -330 -310 -622 -446 -900 -445 -905 0 -3 -4 -11
-10 -18 -12 -13 -164 -322 -160 -322 2 0 -8 -18 -22 -40 -14 -22 -28 -50 -32
-61 -8 -27 -67 -136 -71 -132 -3 3 -135 336 -190 478 -20 52 -45 114 -56 137
-10 24 -19 47 -19 53 0 6 -4 18 -9 28 -14 28 -28 62 -67 162 -20 52 -41 106
-47 120 -6 14 -11 27 -11 30 -2 6 -123 314 -140 355 -18 42 -41 99 -42 105 0
3 -6 19 -13 35 -7 17 -24 59 -38 95 -14 36 -31 79 -38 95 -17 39 -155 387
-159 400 -4 14 -16 47 -26 70 -40 95 -134 342 -132 348 1 4 -2 7 -7 7 -5 0
-11 10 -14 23 -3 12 -13 43 -24 68 -10 26 -58 151 -108 278 -49 127 -95 233
-102 235 -6 3 -34 -4 -63 -14 -28 -10 -54 -19 -58 -20 -4 0 -92 -28 -197 -62
-104 -34 -194 -63 -200 -64 -5 -1 -59 -18 -120 -39 -60 -20 -117 -38 -125 -40
-8 -2 -62 -19 -120 -38 -58 -18 -174 -55 -258 -82 -83 -27 -152 -53 -152 -58
0 -9 101 -263 135 -342 7 -16 45 -111 85 -210 79 -201 83 -210 98 -245 7 -14
28 -65 48 -115 19 -49 41 -101 46 -115 6 -14 12 -29 14 -35 2 -9 166 -413 197
-485 6 -14 11 -27 12 -30 0 -3 7 -16 15 -30 7 -14 13 -27 13 -30 0 -3 3 -15 8
-27 12 -33 227 -563 250 -618 4 -11 42 -103 83 -205 41 -102 118 -293 171
-425 54 -132 106 -262 117 -290 10 -27 28 -69 39 -92 10 -24 19 -47 19 -51 0
-5 6 -22 14 -38 8 -16 42 -99 76 -184 34 -85 68 -168 75 -185 7 -16 27 -66 44
-110 18 -44 36 -89 41 -100 21 -47 72 -171 74 -180 1 -5 10 -27 19 -47 8 -20
26 -65 38 -100 13 -35 27 -64 31 -66 4 -2 8 -12 8 -21 0 -10 3 -21 7 -25 5 -4
8 -11 9 -14 0 -4 6 -20 12 -35 7 -16 12 -30 12 -33 0 -2 8 -23 19 -47 10 -23
51 -123 91 -222 39 -99 78 -193 85 -210 7 -16 54 -133 105 -258 50 -126 96
-241 102 -255 6 -15 12 -29 13 -32 5 -15 27 -68 35 -85 5 -11 39 -94 75 -185
36 -90 68 -166 70 -169 3 -2 25 38 50 90 26 52 50 101 55 109 5 8 55 109 111
225 117 242 273 560 524 1070 97 198 177 365 178 370 1 6 5 12 8 15 9 7 119
238 119 248 0 5 7 15 15 22 8 7 15 21 15 31 0 11 5 19 10 19 6 0 10 5 10 10 0
6 45 102 100 214 55 112 100 209 100 215 0 6 5 11 10 11 6 0 10 4 10 10 0 15
123 264 135 272 6 4 7 8 3 8 -3 0 25 63 63 140 38 76 69 143 69 149 0 5 5 11
11 13 5 2 11 10 13 18 1 8 66 145 144 303 78 159 142 292 142 298 0 5 4 9 10
9 5 0 9 3 8 8 -1 4 40 93 92 197 52 105 95 192 95 195 1 3 55 113 120 245 66
132 120 242 120 245 1 3 58 120 128 261 70 141 127 262 127 268 0 6 5 11 10
11 6 0 10 4 10 9 0 5 40 92 89 193 50 101 90 187 90 192 -1 5 3 12 8 15 5 3
17 24 27 46 11 22 63 130 117 240 55 109 99 205 99 212 0 7 4 13 9 13 5 0 13
9 16 21 4 11 92 193 196 405 104 211 189 389 189 394 0 6 4 10 10 10 5 0 9 3
8 8 -1 4 41 95 93 202 53 107 95 198 95 201 -1 4 7 15 16 25 9 11 17 22 17 27
1 4 48 104 106 223 58 119 105 219 103 223 -2 4 -37 -4 -78 -17z m-817 -895
c-58 -117 -135 -273 -171 -347 -36 -74 -70 -138 -76 -142 -6 -4 -8 -8 -4 -8 4
0 -33 -80 -81 -177 -277 -559 -385 -779 -386 -783 -1 -3 -14 -30 -30 -60 -16
-30 -29 -57 -30 -60 -1 -3 -38 -78 -82 -167 -45 -90 -78 -163 -75 -163 4 0 2
-4 -3 -8 -12 -8 -115 -215 -115 -230 0 -6 -3 -12 -8 -14 -8 -4 -112 -215 -112
-229 0 -5 -4 -9 -10 -9 -5 0 -10 -5 -10 -11 0 -6 -60 -133 -134 -283 -329
-667 -407 -826 -405 -832 0 -4 -3 -10 -8 -13 -5 -3 -17 -24 -28 -46 -16 -37
-304 -620 -593 -1205 -64 -129 -117 -237 -117 -240 -1 -3 -16 -34 -35 -70 -36
-68 -42 -80 -55 -117 -4 -13 -11 -23 -16 -23 -5 0 -9 -5 -9 -11 0 -7 -75 -163
-167 -347 -173 -349 -170 -344 -189 -277 -5 17 -113 279 -125 300 -5 12 -11
27 -13 35 -2 8 -13 37 -24 63 -12 27 -22 51 -22 54 0 4 -7 22 -41 98 -5 11
-28 70 -53 130 -91 229 -158 392 -178 435 -11 25 -21 50 -23 55 -1 6 -7 22
-13 37 -6 15 -34 84 -63 155 -50 124 -63 156 -93 226 -14 32 -145 354 -186
457 -13 30 -29 69 -36 87 -8 17 -14 34 -14 37 0 3 -11 29 -24 58 -13 29 -38
89 -56 133 -17 44 -35 89 -40 100 -5 11 -30 72 -55 135 -25 63 -50 124 -55
135 -12 25 -106 256 -127 310 -8 22 -21 54 -28 70 -7 17 -38 91 -68 165 -45
111 -124 304 -179 438 -6 15 -12 32 -14 37 -2 9 -33 83 -54 130 -5 11 -38 92
-74 180 -35 88 -92 227 -125 309 -34 82 -61 154 -61 160 0 6 26 22 58 36 31
13 100 44 152 68 52 25 96 44 97 44 2 -1 19 7 38 18 42 24 65 26 65 5 0 -8 4
-23 9 -33 26 -51 231 -584 231 -600 0 -7 4 -12 10 -12 5 0 9 -3 8 -7 -1 -8 3
-22 28 -83 25 -64 37 -95 40 -105 4 -14 113 -295 124 -320 5 -11 21 -51 35
-90 35 -91 94 -244 105 -270 5 -11 75 -191 155 -400 81 -209 152 -393 159
-410 7 -16 23 -57 36 -90 12 -33 26 -69 30 -80 5 -11 19 -45 30 -75 12 -30 26
-64 30 -75 5 -11 32 -81 60 -155 28 -74 58 -149 66 -167 8 -17 14 -33 14 -36
0 -3 5 -18 12 -34 6 -15 12 -30 12 -33 2 -6 84 -216 96 -245 17 -38 122 -310
137 -355 28 -80 30 -79 101 68 37 75 70 139 75 140 4 2 7 9 7 15 0 6 48 108
107 226 58 119 141 288 184 376 43 88 83 165 89 172 5 7 10 16 10 22 0 5 13
34 29 65 17 31 27 56 23 56 -4 0 -2 4 4 8 5 4 20 27 31 52 40 86 374 765 384
780 5 8 13 24 18 35 5 11 70 145 145 297 75 153 136 282 136 287 0 5 3 11 8
13 4 2 21 32 38 68 18 36 97 198 177 360 79 162 173 354 208 425 35 72 67 132
71 133 4 2 8 9 8 16 0 7 47 106 104 222 287 580 330 670 328 677 -1 4 3 7 8 7
6 0 10 4 10 10 0 5 39 88 86 184 81 165 88 176 123 188 20 6 41 13 46 14 13 3
253 73 285 83 14 5 45 14 70 21 25 7 52 15 60 18 8 3 21 6 28 8 8 1 15 4 17 6
2 2 13 4 23 5 16 1 2 -35 -85 -210z"/>
<path d="M7476 8023 c-4 -5 -11 -8 -14 -8 -9 0 -97 -33 -137 -50 -29 -13 -140
-54 -160 -59 -5 -1 -21 -8 -35 -14 -39 -18 -184 -74 -195 -76 -25 -4 -39 -27
-126 -204 -51 -103 -93 -189 -94 -192 -1 -3 -67 -138 -148 -301 -81 -164 -147
-302 -147 -308 0 -6 -4 -11 -10 -11 -5 0 -10 -4 -10 -10 0 -5 -70 -153 -156
-327 -86 -175 -218 -444 -294 -598 -76 -154 -224 -455 -329 -668 -105 -213
-191 -392 -191 -397 0 -6 -4 -10 -10 -10 -5 0 -10 -5 -10 -11 0 -6 -70 -152
-155 -325 -85 -173 -155 -319 -155 -324 0 -6 -4 -10 -10 -10 -5 0 -10 -5 -10
-11 0 -10 -187 -402 -210 -439 -11 -18 -25 -48 -210 -425 -81 -165 -214 -435
-296 -600 -81 -165 -148 -303 -148 -307 -1 -4 -7 -13 -13 -19 -7 -7 -13 -16
-13 -21 0 -4 -86 -182 -192 -395 -105 -213 -192 -390 -193 -393 -2 -9 -205
-425 -215 -440 -6 -8 -14 -24 -19 -35 -5 -11 -82 -168 -171 -350 -89 -181
-191 -388 -226 -460 -35 -71 -64 -131 -64 -132 0 -5 49 8 140 37 47 15 105 33
130 40 25 8 50 16 55 19 6 3 18 7 28 8 9 2 42 12 72 22 30 11 55 17 55 15 0
-2 14 2 30 11 17 9 30 13 30 11 0 -3 13 0 30 5 22 8 36 25 59 72 16 34 95 197
176 362 352 716 605 1235 616 1260 5 11 13 27 18 35 11 18 264 533 265 540 1
3 31 66 68 140 37 74 71 146 77 160 6 14 15 32 21 40 9 14 141 284 342 700 49
102 93 192 98 200 6 8 15 26 21 40 6 14 37 78 69 142 33 65 56 118 52 118 -4
0 -2 4 3 8 6 4 39 68 75 142 36 74 68 137 73 138 4 2 7 9 7 15 0 6 38 88 84
182 222 451 395 803 458 935 38 80 73 152 78 160 6 8 14 24 19 35 5 11 56 117
115 237 58 119 106 221 106 227 0 6 5 11 10 11 6 0 10 5 10 10 0 6 53 118 117
248 64 130 118 243 119 250 1 8 10 22 18 31 9 10 16 21 16 25 0 8 51 114 310
641 299 609 320 652 320 659 0 8 -15 8 -24 -1z"/>
<path d="M4393 7866 c-101 -35 -183 -61 -183 -59 0 2 -13 -3 -30 -12 -16 -8
-33 -15 -37 -15 -10 0 -130 -38 -158 -50 -11 -5 -38 -14 -60 -20 -22 -6 -49
-15 -60 -20 -11 -4 -105 -36 -210 -70 -104 -34 -197 -64 -205 -67 -8 -4 -17
-7 -20 -8 -5 -1 -63 -19 -100 -31 -8 -3 -17 -6 -20 -6 -3 0 -34 -12 -70 -25
-36 -14 -65 -24 -65 -23 0 1 -7 -1 -15 -3 -95 -30 -159 -51 -177 -58 -11 -4
-173 -58 -360 -119 -405 -133 -409 -135 -405 -152 5 -21 283 -710 298 -740 8
-16 12 -28 9 -28 -4 0 0 -12 9 -27 8 -16 24 -53 36 -83 11 -30 25 -64 30 -75
5 -11 23 -56 40 -100 18 -44 36 -89 40 -100 21 -48 92 -221 94 -230 3 -11 5
-17 52 -127 17 -42 29 -79 26 -82 -3 -4 0 -6 6 -6 7 0 12 -6 12 -14 0 -7 9
-35 21 -62 11 -27 24 -58 29 -69 4 -11 22 -56 40 -100 33 -85 39 -100 64 -157
9 -20 16 -38 16 -41 0 -2 8 -22 17 -43 9 -22 17 -41 18 -44 1 -3 9 -23 18 -44
10 -22 20 -50 23 -63 4 -13 9 -23 13 -23 4 0 34 55 66 123 32 67 96 201 143
297 122 255 142 298 142 310 0 5 5 10 10 10 6 0 10 4 10 10 0 5 30 71 66 147
36 76 86 181 111 233 55 115 124 260 211 440 36 74 66 137 67 140 0 3 18 41
40 85 21 44 39 82 40 85 1 3 26 57 57 120 82 169 184 382 234 487 24 50 72
151 107 225 36 73 84 174 107 223 23 50 47 98 52 108 13 25 6 23 -199 -47z
m-651 -669 c-66 -133 -252 -521 -252 -527 0 -4 -7 -13 -15 -20 -8 -6 -13 -15
-12 -18 1 -4 -30 -72 -69 -152 -39 -80 -77 -160 -85 -177 -8 -18 -17 -33 -21
-33 -5 0 -8 -5 -8 -12 0 -23 -122 -260 -129 -252 -4 5 -20 41 -36 79 -16 39
-36 88 -46 110 -9 22 -40 96 -69 165 -28 69 -58 139 -65 155 -7 17 -29 71 -50
120 -20 50 -43 104 -51 120 -37 81 -52 125 -45 129 5 3 80 30 167 61 87 30
166 58 174 62 8 3 21 7 28 9 8 1 21 6 30 9 21 9 213 77 392 139 74 26 142 51
150 55 21 12 25 5 12 -22z"/>
<path d="M8132 7378 c-7 -7 -12 -9 -12 -5 0 3 -12 2 -26 -4 -15 -5 -43 -12
-63 -15 -20 -3 -41 -10 -47 -15 -6 -5 -13 -6 -16 -4 -3 3 -25 -1 -49 -9 -24
-8 -55 -17 -69 -20 -14 -2 -61 -14 -105 -26 -44 -12 -90 -24 -102 -26 -12 -2
-35 -9 -50 -15 -16 -6 -29 -10 -30 -10 -14 4 -23 -6 -44 -51 -13 -29 -28 -56
-34 -60 -5 -4 -7 -8 -3 -8 4 0 -20 -53 -52 -117 -32 -65 -107 -219 -168 -343
-60 -124 -170 -349 -244 -500 -74 -151 -141 -290 -149 -307 -8 -18 -17 -33
-21 -33 -5 0 -8 -5 -8 -11 0 -6 -38 -89 -84 -183 -46 -94 -127 -261 -180 -371
-54 -110 -101 -207 -107 -215 -5 -8 -13 -24 -18 -35 -10 -22 -205 -423 -344
-705 -50 -102 -90 -188 -89 -192 1 -5 -3 -8 -8 -8 -6 0 -10 -4 -10 -10 0 -5
-49 -111 -110 -234 -60 -124 -110 -229 -110 -235 0 -6 -4 -11 -10 -11 -5 0
-10 -4 -10 -9 0 -9 -95 -205 -348 -721 -53 -107 -95 -198 -94 -202 1 -5 -3 -8
-8 -8 -6 0 -10 -5 -10 -10 0 -6 -63 -139 -140 -296 -77 -157 -140 -290 -140
-295 0 -5 -4 -9 -10 -9 -5 0 -9 -3 -8 -7 1 -5 -35 -82 -79 -173 -44 -91 -135
-277 -202 -415 -67 -137 -126 -257 -131 -265 -6 -8 -14 -25 -19 -36 -5 -12
-32 -67 -59 -123 -28 -55 -45 -101 -39 -101 7 0 111 32 232 72 121 39 227 73
235 75 8 1 38 11 65 21 l50 18 123 244 c67 135 139 281 159 325 20 44 43 87
51 97 7 9 15 22 16 30 1 7 132 273 289 591 158 318 287 583 287 588 0 5 4 9
10 9 5 0 9 3 8 8 -1 4 69 150 156 326 86 175 162 328 167 340 5 11 13 28 19
36 10 15 603 1211 605 1220 0 3 104 212 230 465 126 253 229 462 230 465 1 3
81 166 178 363 97 196 177 362 177 367 0 6 3 10 8 10 4 0 13 15 21 33 8 17 94
193 192 390 158 319 189 393 151 355z"/>
</g>
</svg>
